# xmcd CD database file
#
# Track frame offsets:
#	183
#	26028
#	40460
#	51718
#	66293
#	79098
#	90990
#	101795
#	114500
#	125558
#	136663
#	147905
#	161125
#	172683
#	186853
#	197208
#	210490
#	221405
#
# Disc length: 3109 seconds
#
# Revision: 0
# Processed by: cddbd v1.5.2PL0 Copyright (c) Steve Scherf et al.
# Submitted via: CDex 1.73
#
DISCID=080c2312
DTITLE=Sammy Davis Jr - The Very Best Of
DYEAR=1993
DGENRE=Jazz
TTITLE0=01 - Mr. Bojangles
TTITLE1=02 - The Candy Man
TTITLE2=03 - Fabulous Places
TTITLE3=04 - Lonely Is The Name
TTITLE4=05 - We'll Be Together Again
TTITLE5=06 - If My Friends Could See Me Now
TTITLE6=07 - I'm Always Chasing Rainbows
TTITLE7=08 - The Shelter Of Your Arms
TTITLE8=09 - The Goin's Great
TTITLE9=10 - I'm Glad There's You
TTITLE10=11 - The People Tree
TTITLE11=12 - I Think I Like You
TTITLE12=13 - Everytime We Say Goodbye
TTITLE13=14 - Here I'll Stay
TTITLE14=15 - Here's That Rainy Day
TTITLE15=16 - I've Got To Be Me
TTITLE16=17 - Somebody
TTITLE17=18 - Please Don't Talk About Me When I'm Gone
EXTD=YEAR: 1993
EXTT0=
EXTT1=
EXTT2=
EXTT3=
EXTT4=
EXTT5=
EXTT6=
EXTT7=
EXTT8=
EXTT9=
EXTT10=
EXTT11=
EXTT12=
EXTT13=
EXTT14=
EXTT15=
EXTT16=
EXTT17=
PLAYORDER=
